<?xml version="1.0" encoding="UTF-8" standalone="no"?>
<!-- Created with Inkscape (http://www.inkscape.org/) -->

<svg
   width="301"
   height="286.5"
   viewBox="0 0 60.2 57.3"
   version="1.1"
   id="svg5"
   xml:space="preserve"
   xmlns="http://www.w3.org/2000/svg"
   xmlns:svg="http://www.w3.org/2000/svg"
   xmlns:rdf="http://www.w3.org/1999/02/22-rdf-syntax-ns#"
   xmlns:cc="http://creativecommons.org/ns#"
   xmlns:dc="http://purl.org/dc/elements/1.1/"><title
     id="title7097">Bangladesh Islami Chhatra Shibir-বাংলাদেশ ইসলামী ছাত্রশিবির</title><defs
     id="defs2" /><g
     id="layer1"
     transform="translate(-44.904705,-31.797031)"><g
       id="g6349"
       transform="matrix(0.50765465,0,0,0.50765465,20.178004,5.6203288)"><path
         id="path446"
         style="fill:#00b3f1;fill-opacity:1;fill-rule:evenodd;stroke-width:0.218389;stop-color:#000000"
         d="m 108.00001,51.797031 -59.095305,42.935238 22.57239,69.470701 h 73.045795 l 22.5724,-69.470698 z" /><path
         id="path1016"
         style="fill:none;fill-opacity:1;fill-rule:evenodd;stroke:#ce171f;stroke-width:1.20221;stroke-dasharray:none;stroke-opacity:1;stop-color:#000000"
         d="m 108.00001,67.842443 -44.401685,32.259707 16.95993,52.19731 h 54.883485 l 16.95993,-52.19731 z" /><g
         id="g6311"
         transform="translate(365.57388,101.21356)"><path
           id="path3026"
           style="opacity:1;fill:#ffffff;fill-opacity:1;fill-rule:evenodd;stroke-width:0.225274;stop-color:#000000;stop-opacity:1"
           d="m -242.28594,-10.39375 a 28.523923,29.246145 0 0 1 8.2336,20.548047 28.523923,29.246145 0 0 1 -28.52383,29.246094 28.523923,29.246145 0 0 1 -22.32071,-11.05625 29.872744,29.246145 0 0 0 25.96094,14.788281 29.872744,29.246145 0 0 0 29.87266,-29.246094 29.872744,29.246145 0 0 0 -13.22266,-24.280078 z" /><path
           id="path3093"
           style="opacity:1;fill:#ffffff;fill-opacity:1;fill-rule:evenodd;stroke-width:0.0676485;stop-color:#000000;stop-opacity:1"
           d="m -277.53427,-12.759531 1.0854,4.0343977 -3.50124,2.2794496 4.17235,0.2144318 1.08596,4.0342449 1.49325,-3.9018705 4.17238,0.2138503 -3.24945,-2.6259188 1.49271,-3.90208 -3.50153,2.278963 z" /><path
           id="path5276"
           style="font-variation-settings:normal;opacity:1;fill:#cd171f;fill-opacity:1;stroke:none;stroke-width:0.06;stroke-linecap:butt;stroke-linejoin:miter;stroke-miterlimit:4;stroke-dasharray:none;stroke-dashoffset:0;stroke-opacity:1;stop-color:#000000;stop-opacity:1"
           d="m -260.69688,-0.75546875 c -1.68141,-0.0129979 -3.60448,0.42445232 -5.34921,1.73984375 -1.81886,1.3712741 -3.48965,3.5376002 -2.75157,7.4832031 0.31651,1.6919769 1.11531,3.3446169 -0.0273,5.0949219 -1.25632,1.924423 -3.69163,-0.787249 -4.40625,-2.48125 -0.54366,-1.2887308 -1.39376,-1.1834785 -2.92148,0.496094 L -279.425,15.175 c -1.55601,1.710661 -3.1633,3.670978 -4.10195,1.513281 -0.4903,-1.127042 -0.29751,-2.613385 -0.35977,-4.018359 -0.003,-0.07315 -0.0607,-0.158212 -0.1289,-0.185938 -0.34949,-0.142019 -0.62512,-0.152956 -0.8836,-0.01641 -0.0651,0.03438 -0.12856,0.127586 -0.14726,0.198828 -1.10186,4.198089 -1.91136,8.220719 0.73671,9.319922 3.83723,1.592809 5.07722,-2.979279 6.61172,-5.095703 2.22482,-3.068537 3.29559,-2.869564 3.81797,-2.023828 2.54263,4.116566 5.84161,2.292605 7.02266,-0.467969 0.79706,-1.863051 1.17487,-3.285701 0.0137,-5.448828 -0.4742,-0.8833595 -2.29074,-6.9715111 6.74375,-6.55 v 1.9734375 a 0.219693,0.219693 0 0 0 0.39141,0.1371094 l 2.9875,-3.7371094 c 0.14274,-0.1785477 0.11843,-0.44645673 -0.0754,-0.5671875 -0.77917,-0.4853689 -2.21898,-0.94872086 -3.9004,-0.96171875 z m 6.38711,1.0390625 C -254.51713,0.28306902 -254.72431,0.423784 -254.725,0.825 l 0.0356,2.9410156 c 0.005,0.3824879 0.67824,0.3746973 0.7582,0.046484 0.38642,-1.5861923 0.39936,-2.84963703 -0.0187,-3.36796875 -0.0759,-0.0941081 -0.21788,-0.16057847 -0.35977,-0.1609375 z M -273.46172,3.6375 a 0.07119825,0.07119825 0 0 0 -0.0492,0.016016 l -3.29062,2.7054688 a 0.3035985,0.3035985 0 0 0 -0.11094,0.234375 V 8.969141 a 0.06777067,0.06777067 0 0 0 0.11094,0.052344 l 3.39062,-2.7875 a 0.28896403,0.28896403 0 0 0 0.10547,-0.234375 l -0.0891,-2.29375 a 0.07119825,0.07119825 0 0 0 -0.0672,-0.068359 z m 11.16719,0.6527344 a 0.15964136,0.15964136 0 0 0 -0.13242,0.047656 l -1.70625,1.7628907 a 0.47109882,0.47109882 0 0 0 -0.13203,0.3539062 l 0.64531,11.5281257 c 0.007,0.133822 -0.047,0.332006 -0.12617,0.439843 -0.34493,0.469917 -0.80829,0.987201 -1.24219,1.341016 -1.04705,0.853788 -1.88248,0.258619 -2.24922,-3.2 -0.0155,-0.146261 -0.11268,-0.182364 -0.21875,-0.08047 l -1.28906,1.238672 c -0.10607,0.101896 -0.18215,0.302709 -0.16992,0.448828 0.21469,2.566374 0.44055,5.309355 1.80898,7.060547 1.12566,1.440509 2.32612,-0.876644 3.33359,-2.277344 0.14836,-0.20626 0.31659,-0.163862 0.35313,0.0875 0.24979,1.718384 0.1941,3.857006 0.0297,6.144922 -0.006,0.09014 0.0453,0.21007 0.12461,0.253125 0.56266,0.30551 0.95051,-0.318206 1.2246,-1.005078 1.12535,-2.820092 0.80973,-6.20008 0.75196,-9.480078 -0.003,-0.195672 0.0701,-0.493468 0.16836,-0.662109 0.35247,-0.604916 0.69554,-1.067682 1.03633,-1.497266 0.17159,-0.216306 0.29989,-0.166602 0.28046,0.108203 -0.1678,2.374198 -0.46925,4.928369 0.48555,6.517578 1.41596,2.356801 4.28128,2.250961 5.8375,-0.01289 0.10494,-0.152662 0.29039,-0.180307 0.43359,-0.06289 1.16864,0.958184 2.68101,1.437725 4.00469,0.905078 1.73634,-0.698698 1.81488,-4.445048 0.68047,-6.552344 -0.87128,-1.618505 -1.39236,-2.762826 -0.20351,-4.065234 0.10801,-0.118336 0.14292,-0.322589 0.0691,-0.464844 l -1.47032,-2.835156 c -0.0738,-0.142255 -0.19606,-0.143353 -0.2707,-0.0016 -1.03156,1.95966 -1.63823,3.951925 -0.54727,6.250782 0.50127,1.056263 1.25879,2.301692 0.85196,3.340625 -0.67501,1.723768 -2.90038,0.890009 -2.87188,-0.60625 l 0.11211,-5.88125 a 0.44952378,0.44952378 0 0 0 -0.20156,-0.383594 l -1.85195,-1.225391 a 0.13388025,0.13388025 0 0 0 -0.20782,0.110547 l -0.0539,8.120703 c -9.4e-4,0.140517 -0.11088,0.28811 -0.24688,0.323047 -2.88499,0.741158 -2.75972,-1.650653 -2.80429,-5.901953 -0.0136,-1.29388 -0.62086,-2.954421 -3.03203,-0.605469 -0.096,0.09353 -0.18359,0.06294 -0.19805,-0.07031 l -0.32656,-3.009766 a 0.51932469,0.51932469 0 0 1 0.10195,-0.369531 l 1.55781,-2.0585941 a 0.30245723,0.30245723 0 0 0 0.0168,-0.3402343 l -2.2375,-3.6585938 a 0.15964136,0.15964136 0 0 0 -0.11836,-0.075391 z m 16.96367,0.2035156 a 0.12545195,0.12545195 0 0 0 -0.11133,0.066797 l -1.74258,3.3070312 c -0.0617,0.1170341 -0.10199,0.3185741 -0.0898,0.45 0.40732,4.4066688 1.06343,9.1935778 0.98711,13.1324218 -0.0473,2.442085 -0.49817,4.899297 -1.075,6.7 -0.42218,1.317911 1.39325,1.418888 1.70195,0.379297 1.53602,-5.172787 1.21561,-11.150903 1.02461,-16.833594 -0.004,-0.132207 0.0617,-0.321379 0.14727,-0.422265 l 1.55742,-1.8363285 a 0.35639007,0.35639007 0 0 0 0.0445,-0.3953125 l -2.3332,-4.4804688 a 0.12545195,0.12545195 0 0 0 -0.11094,-0.067578 z m -6.92422,1.1335938 c -0.0867,4.573e-4 -0.17341,0.012689 -0.26015,0.039063 -0.0863,0.026249 -0.14232,0.1328703 -0.1293,0.2210937 0.0333,0.2257453 0.0684,0.4506914 0.034,0.7035156 -0.11546,0.8482121 -0.95618,0.9100397 -1.11679,0.0625 -0.0357,-0.1884748 -0.0272,-0.4324865 -0.0125,-0.6839843 0.006,-0.1108856 -0.0683,-0.2442136 -0.17618,-0.2691407 -0.17319,-0.040029 -0.3924,-0.040826 -0.62812,0.012891 -0.10824,0.024666 -0.18892,0.1439611 -0.18399,0.253125 0.0449,0.992136 0.0189,1.039283 -0.009,1.2085937 -0.10473,0.6280073 -0.95902,0.6984796 -1.0875,0 -0.0512,-0.277878 -0.0259,-0.6928551 -0.006,-1.0988281 0.005,-0.1075698 -0.0661,-0.2449408 -0.1707,-0.2679688 -0.10764,-0.023705 -0.23296,-0.022943 -0.36133,0.00859 -0.1044,0.025646 -0.18141,0.1536478 -0.1793,0.2613281 l 0.0363,1.8421875 c 0.0381,1.068011 1.33404,1.651665 2.15352,0.2921875 0.0665,-0.1103103 0.1602,-0.1113844 0.23007,-0.00313 0.78137,1.2105656 1.92821,0.6842815 2.19493,-0.2007812 0.1829,-0.6069245 0.18829,-1.3844958 0.16718,-2.1175782 -0.003,-0.090318 -0.0736,-0.190143 -0.16054,-0.2144531 -0.11153,-0.031189 -0.22285,-0.049807 -0.33438,-0.049219 z m -22.37031,12.8160152 a 0.16215322,0.16215322 0 0 0 -0.11524,0.04727 l -1.55625,1.55625 a 0.1636534,0.1636534 0 0 0 0,0.23125 l 1.125,1.125 a 0.1636546,0.1636546 0 0 0 0.23125,0 l 1.54375,-1.54375 a 0.16516867,0.16516867 0 0 0 0.001,-0.232422 l -1.11446,-1.135156 a 0.16215322,0.16215322 0 0 0 -0.11523,-0.04844 z" /></g></g></g><metadata
     id="metadata7095"><rdf:RDF><cc:Work
         rdf:about=""><dc:title>Bangladesh Islami Chhatra Shibir-বাংলাদেশ ইসলামী ছাত্রশিবির</dc:title></cc:Work></rdf:RDF></metadata></svg>
